<!DOCTYPE svg PUBLIC "-//W3C//DTD SVG 1.1//EN" "http://www.w3.org/Graphics/SVG/1.1/DTD/svg11.dtd">
<!-- Uploaded to: SVG Repo, www.svgrepo.com, Transformed by: SVG Repo Mixer Tools -->
<svg fill="#ffde66" height="64px" width="64px" version="1.1" id="Layer_1" xmlns="http://www.w3.org/2000/svg" xmlns:xlink="http://www.w3.org/1999/xlink" viewBox="0 0 512 512" xml:space="preserve" stroke="#ffde66">
<g id="SVGRepo_bgCarrier" stroke-width="0"/>
<g id="SVGRepo_tracerCarrier" stroke-linecap="round" stroke-linejoin="round"/>
<g id="SVGRepo_iconCarrier"> <g> <g> <path d="M282.013,45.746h-131.7c-16.878,0-30.609,13.731-30.609,30.609v70.791c0,16.878,13.731,30.609,30.609,30.609h131.701 c16.877,0,30.609-13.731,30.609-30.609V76.355C312.622,59.476,298.892,45.746,282.013,45.746z M279.232,144.362h-0.001H153.096 V79.136h126.135V144.362z"/> </g> </g> <g> <g> <path d="M470.206,84.938l-26.7-52.333c-4.192-8.214-14.245-11.473-22.461-7.284c-8.213,4.191-11.474,14.246-7.284,22.459 l19.38,37.984c-29.415,9.491-50.759,37.119-50.759,69.651v54.592c0,9.221,7.475,16.696,16.696,16.696h39.56v55.929 c0,27.896-22.694,50.59-50.589,50.59h-27.101V41.021C360.949,18.402,342.548,0,319.93,0H123.064 c-28.5,0-51.687,23.186-51.687,51.686v378.941c-17.995,4.34-31.407,20.564-31.407,39.872v24.805 c0,9.221,7.475,16.696,16.696,16.696h318.996c9.221,0,16.696-7.475,16.696-16.696V470.5c0-19.308-13.413-35.532-31.408-39.872 v-64.013h27.101c46.308,0,83.98-37.674,83.98-83.982c0-0.16,0-190.107,0-190.107C472.031,89.887,471.405,87.287,470.206,84.938z M104.768,51.686c0-10.088,8.208-18.294,18.295-18.294H319.93c4.206,0,7.629,3.423,7.629,7.629v388.458h-222.79V51.686z M73.361,478.608V470.5c0-4.206,3.423-7.629,7.629-7.629h7.082h256.181h7.082c4.206,0,7.629,3.423,7.629,7.629v8.109H73.361z M438.639,193.312h-22.865v-37.896c0-15.889,9.365-29.625,22.865-35.996V193.312z"/> </g> </g> </g>
</svg>